<mxfile host="app.diagrams.net" agent="Mozilla/5.0 (Windows NT 10.0; Win64; x64) AppleWebKit/537.36 (KHTML, like Gecko) Chrome/129.0.0.0 Safari/537.36" version="24.7.17">
  <diagram id="prtHgNgQTEPvFCAcTncT" name="Page-1">
    <mxGraphModel dx="1050" dy="541" grid="0" gridSize="10" guides="1" tooltips="1" connect="1" arrows="1" fold="1" page="1" pageScale="1" pageWidth="827" pageHeight="1169" math="0" shadow="0">
      <root>
        <mxCell id="0" />
        <mxCell id="1" parent="0" />
        <mxCell id="dxJAJ3mCgF3W-g2Vz3Aw-11" style="edgeStyle=orthogonalEdgeStyle;rounded=0;orthogonalLoop=1;jettySize=auto;html=1;exitX=0.5;exitY=1;exitDx=0;exitDy=0;entryX=0.5;entryY=0;entryDx=0;entryDy=0;" edge="1" parent="1" source="dxJAJ3mCgF3W-g2Vz3Aw-3" target="dxJAJ3mCgF3W-g2Vz3Aw-5">
          <mxGeometry relative="1" as="geometry" />
        </mxCell>
        <mxCell id="dxJAJ3mCgF3W-g2Vz3Aw-12" style="edgeStyle=orthogonalEdgeStyle;rounded=0;orthogonalLoop=1;jettySize=auto;html=1;exitX=0.5;exitY=1;exitDx=0;exitDy=0;entryX=0.5;entryY=0;entryDx=0;entryDy=0;" edge="1" parent="1" source="dxJAJ3mCgF3W-g2Vz3Aw-3" target="dxJAJ3mCgF3W-g2Vz3Aw-4">
          <mxGeometry relative="1" as="geometry" />
        </mxCell>
        <mxCell id="dxJAJ3mCgF3W-g2Vz3Aw-13" style="edgeStyle=orthogonalEdgeStyle;rounded=0;orthogonalLoop=1;jettySize=auto;html=1;exitX=0.5;exitY=1;exitDx=0;exitDy=0;entryX=0.5;entryY=0;entryDx=0;entryDy=0;" edge="1" parent="1" source="dxJAJ3mCgF3W-g2Vz3Aw-3" target="dxJAJ3mCgF3W-g2Vz3Aw-6">
          <mxGeometry relative="1" as="geometry" />
        </mxCell>
        <mxCell id="dxJAJ3mCgF3W-g2Vz3Aw-3" value="access_control_test" style="rounded=0;whiteSpace=wrap;html=1;fontSize=13;" vertex="1" parent="1">
          <mxGeometry x="320" y="80" width="120" height="60" as="geometry" />
        </mxCell>
        <mxCell id="dxJAJ3mCgF3W-g2Vz3Aw-4" value="&lt;div style=&quot;line-height: 19px;&quot;&gt;&lt;span style=&quot;font-size: 13px;&quot;&gt;加载UT用例&lt;/span&gt;&lt;/div&gt;" style="rounded=0;whiteSpace=wrap;html=1;" vertex="1" parent="1">
          <mxGeometry x="110" y="200" width="120" height="60" as="geometry" />
        </mxCell>
        <mxCell id="dxJAJ3mCgF3W-g2Vz3Aw-5" value="执行单元用例" style="rounded=0;whiteSpace=wrap;html=1;" vertex="1" parent="1">
          <mxGeometry x="320" y="200" width="120" height="60" as="geometry" />
        </mxCell>
        <mxCell id="dxJAJ3mCgF3W-g2Vz3Aw-6" value="统计测试结果" style="rounded=0;whiteSpace=wrap;html=1;" vertex="1" parent="1">
          <mxGeometry x="560" y="200" width="120" height="60" as="geometry" />
        </mxCell>
        <mxCell id="dxJAJ3mCgF3W-g2Vz3Aw-10" value="" style="rounded=0;whiteSpace=wrap;html=1;" vertex="1" parent="1">
          <mxGeometry x="144" y="300" width="540" height="230" as="geometry" />
        </mxCell>
        <mxCell id="dxJAJ3mCgF3W-g2Vz3Aw-14" style="edgeStyle=orthogonalEdgeStyle;rounded=0;orthogonalLoop=1;jettySize=auto;html=1;exitX=0.5;exitY=1;exitDx=0;exitDy=0;entryX=0.438;entryY=-0.017;entryDx=0;entryDy=0;entryPerimeter=0;" edge="1" parent="1" source="dxJAJ3mCgF3W-g2Vz3Aw-5" target="dxJAJ3mCgF3W-g2Vz3Aw-10">
          <mxGeometry relative="1" as="geometry" />
        </mxCell>
        <mxCell id="dxJAJ3mCgF3W-g2Vz3Aw-15" value="TestMgr类" style="rounded=0;whiteSpace=wrap;html=1;fontSize=13;" vertex="1" parent="1">
          <mxGeometry x="170" y="330" width="120" height="60" as="geometry" />
        </mxCell>
        <mxCell id="dxJAJ3mCgF3W-g2Vz3Aw-22" style="edgeStyle=orthogonalEdgeStyle;rounded=0;orthogonalLoop=1;jettySize=auto;html=1;exitX=0.5;exitY=1;exitDx=0;exitDy=0;entryX=0.5;entryY=0;entryDx=0;entryDy=0;" edge="1" parent="1" source="dxJAJ3mCgF3W-g2Vz3Aw-16" target="dxJAJ3mCgF3W-g2Vz3Aw-20">
          <mxGeometry relative="1" as="geometry" />
        </mxCell>
        <mxCell id="dxJAJ3mCgF3W-g2Vz3Aw-23" style="edgeStyle=orthogonalEdgeStyle;rounded=0;orthogonalLoop=1;jettySize=auto;html=1;exitX=0.5;exitY=1;exitDx=0;exitDy=0;entryX=0.5;entryY=0;entryDx=0;entryDy=0;" edge="1" parent="1" source="dxJAJ3mCgF3W-g2Vz3Aw-16" target="dxJAJ3mCgF3W-g2Vz3Aw-21">
          <mxGeometry relative="1" as="geometry" />
        </mxCell>
        <mxCell id="dxJAJ3mCgF3W-g2Vz3Aw-16" value="EXEC方法" style="rounded=0;whiteSpace=wrap;html=1;fontSize=13;" vertex="1" parent="1">
          <mxGeometry x="335" y="330" width="120" height="60" as="geometry" />
        </mxCell>
        <mxCell id="dxJAJ3mCgF3W-g2Vz3Aw-34" style="edgeStyle=orthogonalEdgeStyle;rounded=0;orthogonalLoop=1;jettySize=auto;html=1;exitX=0.5;exitY=1;exitDx=0;exitDy=0;entryX=0.5;entryY=0;entryDx=0;entryDy=0;" edge="1" parent="1" source="dxJAJ3mCgF3W-g2Vz3Aw-17" target="dxJAJ3mCgF3W-g2Vz3Aw-25">
          <mxGeometry relative="1" as="geometry" />
        </mxCell>
        <mxCell id="dxJAJ3mCgF3W-g2Vz3Aw-17" value="stragey" style="rounded=0;whiteSpace=wrap;html=1;fontSize=14;" vertex="1" parent="1">
          <mxGeometry x="500" y="330" width="120" height="60" as="geometry" />
        </mxCell>
        <mxCell id="dxJAJ3mCgF3W-g2Vz3Aw-19" value="用于加载选择或排除测试文件" style="text;strokeColor=none;align=center;fillColor=none;html=1;verticalAlign=middle;whiteSpace=wrap;rounded=0;" vertex="1" parent="1">
          <mxGeometry x="170" y="396" width="130" height="30" as="geometry" />
        </mxCell>
        <mxCell id="dxJAJ3mCgF3W-g2Vz3Aw-20" value="subprocess开启子进程" style="rounded=0;whiteSpace=wrap;html=1;" vertex="1" parent="1">
          <mxGeometry x="316" y="430" width="70" height="30" as="geometry" />
        </mxCell>
        <mxCell id="dxJAJ3mCgF3W-g2Vz3Aw-21" value="cdm执行run_test" style="rounded=0;whiteSpace=wrap;html=1;" vertex="1" parent="1">
          <mxGeometry x="410" y="430" width="70" height="30" as="geometry" />
        </mxCell>
        <mxCell id="dxJAJ3mCgF3W-g2Vz3Aw-25" value="&lt;div style=&quot;line-height: 19px;&quot;&gt;TestFileStrategy&lt;/div&gt;" style="rounded=0;whiteSpace=wrap;html=1;" vertex="1" parent="1">
          <mxGeometry x="517" y="405" width="96" height="30" as="geometry" />
        </mxCell>
        <mxCell id="dxJAJ3mCgF3W-g2Vz3Aw-28" value="&lt;div style=&quot;line-height: 19px;&quot;&gt;&lt;div style=&quot;line-height: 19px;&quot;&gt;&lt;div style=&quot;line-height: 19px;&quot;&gt;CopyOptStrategy&lt;/div&gt;&lt;/div&gt;&lt;/div&gt;" style="rounded=0;whiteSpace=wrap;html=1;" vertex="1" parent="1">
          <mxGeometry x="517" y="435" width="96" height="30" as="geometry" />
        </mxCell>
        <mxCell id="dxJAJ3mCgF3W-g2Vz3Aw-31" value="&lt;div style=&quot;line-height: 19px;&quot;&gt;&lt;div style=&quot;line-height: 19px;&quot;&gt;&lt;div style=&quot;line-height: 19px;&quot;&gt;&lt;div style=&quot;line-height: 19px;&quot;&gt;OpStrategy&lt;/div&gt;&lt;/div&gt;&lt;/div&gt;&lt;/div&gt;" style="rounded=0;whiteSpace=wrap;html=1;" vertex="1" parent="1">
          <mxGeometry x="517" y="463" width="96" height="30" as="geometry" />
        </mxCell>
        <mxCell id="dxJAJ3mCgF3W-g2Vz3Aw-32" value="&lt;div style=&quot;line-height: 19px;&quot;&gt;&lt;div style=&quot;line-height: 19px;&quot;&gt;&lt;div style=&quot;line-height: 19px;&quot;&gt;&lt;div style=&quot;line-height: 19px;&quot;&gt;CoreTestStrategy&lt;/div&gt;&lt;/div&gt;&lt;/div&gt;&lt;/div&gt;" style="rounded=0;whiteSpace=wrap;html=1;" vertex="1" parent="1">
          <mxGeometry x="517" y="493" width="96" height="30" as="geometry" />
        </mxCell>
        <mxCell id="dxJAJ3mCgF3W-g2Vz3Aw-35" value="&lt;span style=&quot;font-size: 14px;&quot;&gt;access_control_test启动CI的原理&lt;/span&gt;" style="text;strokeColor=none;align=center;fillColor=none;html=1;verticalAlign=middle;whiteSpace=wrap;rounded=0;fontStyle=1;fontSize=14;" vertex="1" parent="1">
          <mxGeometry x="35" y="95" width="222" height="30" as="geometry" />
        </mxCell>
      </root>
    </mxGraphModel>
  </diagram>
</mxfile>
